<?xml version="1.0" encoding="utf-8"?>
<!-- Generator: Adobe Illustrator 27.9.0, SVG Export Plug-In . SVG Version: 6.00 Build 0)  -->
<svg version="1.1" id="Capa_1" xmlns="http://www.w3.org/2000/svg" xmlns:xlink="http://www.w3.org/1999/xlink" x="0px" y="0px"
	 viewBox="0 0 128 128" style="enable-background:new 0 0 128 128;" xml:space="preserve">
<style type="text/css">
	.st0{fill-rule:evenodd;clip-rule:evenodd;fill:#202121;stroke:#020203;stroke-width:8.711999e-03;stroke-miterlimit:10;}
	.st1{fill-rule:evenodd;clip-rule:evenodd;fill:#FFFFFF;stroke:#020203;stroke-width:8.711999e-03;stroke-miterlimit:10;}
	.st2{fill-rule:evenodd;clip-rule:evenodd;fill:#020203;stroke:#020203;stroke-width:8.711999e-03;stroke-miterlimit:10;}
	.st3{fill-rule:evenodd;clip-rule:evenodd;fill:#808181;}
	.st4{fill-rule:evenodd;clip-rule:evenodd;fill:#E52922;}
	.st5{fill-rule:evenodd;clip-rule:evenodd;fill:#D51116;}
	.st6{fill-rule:evenodd;clip-rule:evenodd;fill:#202121;}
	.st7{fill-rule:evenodd;clip-rule:evenodd;fill:#404040;}
	.st8{fill-rule:evenodd;clip-rule:evenodd;fill:#626262;}
	.st9{fill-rule:evenodd;clip-rule:evenodd;fill:#FFFFFF;}
	.st10{fill-rule:evenodd;clip-rule:evenodd;fill:#020203;}
	.st11{fill-rule:evenodd;clip-rule:evenodd;fill:#E52922;stroke:#020203;stroke-width:8.711999e-03;stroke-miterlimit:10;}
</style>
<g>
	<path class="st0" d="M13,55.5h10.6c1,0.6,1.8,1.2,2.4,2c0.6,0.7,1,1.3,1.4,2.4c0.5,1.1,1.2,2.4,1.3,4.4c0.1,2-0.1,5.1-0.9,7.7
		c-0.8,2.5-2.2,5-4.1,7.4c-1.1,0.2-2.5,0.3-4.5,0.3c-2,0-4.3-0.1-7.1-0.4c-1-0.4-1.9-1.1-2.6-2c-0.7-0.9-1.3-2-1.8-3.5
		c-0.5-1.5-1-3.2-0.9-5.3c0-2.2,0.4-5.2,1.4-7.4C9.4,58.9,10.9,57.1,13,55.5L13,55.5z"/>
	<path class="st1" d="M16.7,69c-0.1-0.9-0.1-1.7,0-2.6c0.1-0.9,0.3-2,0.5-2.9c0.2-0.9,0.4-1.5,0.9-2.2c0.5-0.7,1.8-2.4,1.9-2.2
		c0,0.2-1.2,2.3-1.6,3.3c-0.4,0.9-0.4,1.3-0.5,2.2c-0.1,0.9-0.3,2.5-0.3,3.5c-0.1,1,0,1.8,0,2.4c-0.2-0.6-0.3-1-0.4-1
		c-0.1-0.1-0.1,0.7-0.2,0.7C17,70.1,16.9,69.7,16.7,69L16.7,69z"/>
	<path class="st1" d="M25.9,60.1c0.4,0.2,0.7,1,0.9,1.5c0.3,0.5,0.6,1,0.7,1.8c0.2,0.7,0.4,2.2,0.3,2.5c0,0.2-0.3-0.4-0.6-1
		c-0.2-0.5-0.5-1.5-0.8-2.2c-0.3-0.7-0.9-1.3-1.1-2C25.2,60,25.5,59.8,25.9,60.1L25.9,60.1z"/>
	<path class="st2" d="M20.7,61.1c-0.7,0.6-1.3,1.7-1.6,2.8c-0.4,1.1-0.5,2.2-0.5,3.5c0,1.3,0.1,2.8,0.5,3.9c0.4,1.1,0.9,2.1,1.7,2.3
		c0.8,0.2,2.1,0.2,2.9-0.9c0.8-1.1,1.7-3.8,2-5.5c0.3-1.7,0.1-3.5-0.3-4.7c-0.5-1.2-1.7-2.3-2.5-2.5C22,59.8,21.4,60.4,20.7,61.1
		L20.7,61.1z"/>
	<path class="st2" d="M8.7,75.3c0.1,0.5,0.5,1.1,1,1.8c0.6,0.6,1.3,1.3,2.4,2.1c1.4-0.1,2.6,0,3.8,0c1.1,0.1,2,0.3,3.2,0.4
		c1.2,0,2.5,0,3.9-0.2c1.3-1.1,2-1.9,2.2-2.5c0.2-0.7-0.1-1.2-0.9-1.2c-0.8,0.1-2.7,1.4-3.9,1.5c-1.2,0.1-2.3-0.4-3.2-1.1
		c-0.9-0.8-1.4-3.4-2-3.6c-0.6-0.2-0.8,3-1.7,2.5c-0.9-0.6-2.7-4.9-3.6-5.8c-0.9-0.9-1.6-0.7-1.6,0.1c0.1,0.8,1.9,3.5,2,4.5
		C10.5,74.7,9.9,75.3,8.7,75.3L8.7,75.3z"/>
	<path class="st2" d="M20.1,58.3c0.4-0.4,0.9-0.7,1.5-0.9c0.6-0.3,1.3-0.7,2-0.5c0.7,0.2,1.6,1.4,2.2,1.8c0.5,0.5,1,1.1,1,1
		c0-0.1-0.5-1.3-0.9-1.8c-0.4-0.6-1.2-1.1-1.7-1.4c-0.5-0.3-0.9-0.4-1.2-0.3c-0.4-0.1-0.9,0-1.4,0.4C21.3,56.9,20.7,57.4,20.1,58.3
		L20.1,58.3z"/>
	<path class="st3" d="M26.3,68c-0.8-0.2-1.7-0.5-2.7-0.8c-1.1-0.3-2.2-0.7-3.5-1.2c-0.1-0.2-0.1-0.3-0.1-0.4
		c0.1-0.1,0.3-0.3,0.5-0.3c0.2,0,0.3,0,0.4,0.2l5.9,1.8C26.7,67.5,26.5,67.7,26.3,68L26.3,68z"/>
	<path class="st3" d="M26.8,66.1c-0.7-0.1-1.4-0.1-2.1-0.1c-0.7-0.1-1.5-0.1-2.2-0.2c0-0.2,0-0.4,0.1-0.5c0.1-0.1,0.3-0.1,0.5-0.1
		l4.5,0.4C27.4,65.8,27.1,65.9,26.8,66.1L26.8,66.1z"/>
	<path class="st3" d="M24.1,68.6c-0.5,0.2-1,0.4-1.5,0.6c-0.5,0.2-1,0.5-1.5,0.7c-0.2,0.1-0.3,0.3-0.2,0.4c0,0.1,0.2,0.2,0.4,0.2
		l2.9-1.3C24.2,69,24.1,68.8,24.1,68.6L24.1,68.6z"/>
	<path class="st4" d="M2.9,76c-0.3-0.1-0.6-0.3-0.7-0.5C2,75.3,2,75.1,2,74.8c-0.1-0.3-0.2-0.5-0.1-0.9c0.1-0.3,0.2-0.7,0.5-1
		c0.2-0.3,0.5-0.4,0.9-0.6c0.4-0.2,0.9-0.4,1.6-0.7c0.7-0.3,1.7-0.5,2.4-0.8C8,70.7,8.5,70.4,9,70.2c0.5-0.3,0.9-0.5,1.2-0.8
		c0.3-0.3,0.3-0.3,0.4-0.9c0.1-0.6,0.3-1.4,0.4-2.6l-0.2,3.9L5.7,73C4.8,74,3.9,75,2.9,76L2.9,76z"/>
	<path class="st5" d="M11.3,73.2c0,0,0.1-1.1,0.1-2.3c0-1.2,0.2-4.1,0.1-4.9c-0.1-0.9-0.4-0.8-0.5-0.3c-0.1,0.5-0.1,2.4-0.3,3.1
		c-0.2,0.7-0.3,0.8-0.9,1.2c-0.6,0.4-1.7,0.8-2.5,1.1c-0.9,0.3-2,0.6-2.8,0.9c-0.8,0.3-1.7,0.6-2,1.1c-0.4,0.5-0.4,1.5-0.3,2
		c0.1,0.5,0.2,0.9,1.1,0.9c0.8,0,2.6-0.5,3.9-1C8.5,74.6,11.3,73.2,11.3,73.2L11.3,73.2z"/>
	<path class="st6" d="M3.6,73.9c0.6-0.1,1.3-0.4,2-0.7c0.7-0.4,1.7-1.1,2.3-1.4c0.6-0.4,0.9-0.6,1.4-0.7c0.4-0.1,0.5-0.2,1.4-0.2
		c0.8,0,2.2,0,3.4,0c1.3,0,2.5,0.1,4,0.2c1.4,0,2.8,0.1,4.3,0.1l-3.3,3.8c-1.6,0-3.3,0-5.2,0c-1.9-0.1-4.5-0.2-5.9-0.2
		c-1.4-0.1-2-0.1-2.6-0.1s-1.1,0.1-1.3,0C3.8,74.4,3.6,74.2,3.6,73.9L3.6,73.9z"/>
	<path class="st7" d="M19.4,74.7c-1.2,0-2.6,0-4.1-0.1c-1.5,0-3.3-0.1-4.8-0.1c-1.5-0.1-3-0.2-4.1-0.2c-1.1-0.1-1.7-0.1-2.1-0.1
		c-0.5,0-0.5,0-0.6,0.1c-0.1,0-0.2,0.2,0.2,0.3c0.3,0.1,0.9,0,1.9,0.1c1,0.1,2.2,0.1,3.7,0.2c1.5,0,3.4,0.1,5,0.1
		c1.6,0,3.1,0.1,4.6,0.1C19.2,75,19.3,74.9,19.4,74.7L19.4,74.7z"/>
	<path class="st5" d="M57.5,59.4l-1.9,17.3c-4.7,0.4-8.7,0.7-12,1c-3.4,0.3-5.6,0.6-8.1,0.8c-2.5,0.1-4.2,0.2-6.7,0.1
		c-2.5-0.1-6.4-0.2-8.2-0.3c-1.8-0.1-2.5-0.2-2.3-0.3c2.9-3,6.2-5.7,10-8.2c3.8-2.5,8.5-5,12.8-6.6c4.3-1.7,10-2.6,12.8-3.3
		C56.5,59.3,57.7,59.1,57.5,59.4L57.5,59.4z"/>
	<path class="st4" d="M62.1,58.5c-1.9,0.4-3.7,0.8-5.5,1.3c-1.9,0.5-3.4,0.8-5.4,1.4c-2.1,0.5-4.6,1.3-6.7,2c-2.1,0.6-3.9,1-5.9,1.9
		c-2.1,0.9-4.6,2.2-6.4,3.4c-1.9,1.1-3,2.2-4.7,3.6c-1.8,1.4-4.4,3.7-5.6,4.7c-1.2,0.9-1,0.8-1.7,1c-0.6,0.2-1.7,0.4-2.1,0.2
		c-0.4-0.2-0.4-0.5-0.2-1.1c0.2-0.6,0.5-1.3,1.3-2.3c0.7-1,2-2.6,2.9-3.7c0.9-1.1,1.5-1.9,2.5-2.9c1.1-1,2.4-2.1,3.9-3.2
		c1.5-1.1,3.2-2.2,5.1-3.4c-0.7-0.3-1-0.6-1-0.9c0-0.3,0.4-0.5,0.9-0.8c0.6-0.3,1.5-0.7,2.4-0.9c0.8-0.3,1.6-0.5,2.8-0.5
		c1.1-0.1,2.4,0,3.9,0.1c0.2-0.3,0.6-0.4,1.4-0.5c0.7-0.1,1.4-0.1,3.1,0c1.7,0.1,4.5,0.4,7.1,0.5C56.4,58.5,59.1,58.5,62.1,58.5
		L62.1,58.5z"/>
	<path class="st3" d="M47.2,63.1c0.9,0.8,1.7,1.6,2.6,2.4c0.9,0.8,1.8,1.6,2.8,2.4c-2.8,0.1-5.2,0.3-7.2,0.4c-2.1,0.1-3.7,0.2-5,0.3
		c-0.3,0.1-0.4,0.3-0.4,0.4c0,0.1,0.1,0.3,0.3,0.5c3.7-0.2,6.5-0.4,8.8-0.6c2.3-0.1,3.8-0.3,4.6-0.3l0.2-1.1
		c-1.2-0.9-2.3-1.7-3.3-2.5c-1-0.8-1.8-1.5-2.6-2.1c-0.3-0.2-0.5-0.2-0.6-0.2C47.2,62.8,47.2,62.9,47.2,63.1L47.2,63.1z"/>
	<path class="st8" d="M75.8,48.2l12.8-4.8l0.1,2.3l27.6,1.7l7.1-2.1l-0.1,10.9c-0.2-1.4-0.6-2.5-1.2-3.4c-0.6-0.9-1.1-1.5-2.4-1.9
		c-1.3-0.4-3-0.5-5.2-0.4l-7.1,2.3l-6.4-0.3l2.3,10l-6.1-0.1l0.1-9.6c-3.9-0.3-7.2-0.5-10.1-0.7c-2.9-0.2-5.2-0.3-7.1-0.3
		C78.7,50.6,77.3,49.4,75.8,48.2L75.8,48.2z"/>
	<path class="st6" d="M88.8,43.3l0.1,2.2l27.7,1.7l-2.4,1.7L88,47.7l-6.3,3.1l-4.1-3.4L88.8,43.3L88.8,43.3z"/>
	<path class="st6" d="M99.1,62.3l-0.2-9.2l-1.2-0.2l-0.4,9.8L99.1,62.3L99.1,62.3z"/>
	<path class="st4" d="M115,50.5l-0.4-2.4c0.1-0.2,0.6-0.4,1.6-0.8c1-0.4,3.2-1,4.4-1.4c1.2-0.4,2.2-0.6,2.9-0.8l-0.1,11.4
		c-0.3-0.7-0.5-1.4-0.9-2.1c-0.3-0.7-0.7-1.5-1.2-2.1c-0.6-0.6-1.2-1-2.3-1.4C118.1,50.6,116.7,50.5,115,50.5L115,50.5z"/>
	<path class="st6" d="M110.2,49.6h10c1.3,0.3,2.4,0.9,3.2,1.8c0.8,0.9,1.4,2.1,1.9,3.6c0.4,1.5,0.7,3.4,0.7,5.4c0.1,2,0,4.6-0.5,6.6
		c-0.5,1.9-1.5,3.7-2.4,5c-0.9,1.2-1.7,1.7-3,2.2c-1.4,0.4-3,0.5-4.8,0.5c-1.8,0-3.9-0.1-6.2-0.3c-1.6-1.6-2.7-3.2-3.5-4.9
		c-0.8-1.7-1.1-3.6-1.3-5.4c-0.2-1.8-0.1-3.5,0.1-4.9c0.2-1.4,0.5-2.4,0.9-3.5c0.4-1.1,0.7-2.2,1.5-3.2
		C107.6,51.4,108.7,50.5,110.2,49.6L110.2,49.6z"/>
	<path class="st9" d="M118,71.7c0,0.1-1.4-1-1.9-1.7c-0.5-0.7-0.9-1.4-1.1-2.3c-0.3-1-0.6-2.4-0.7-3.6c-0.1-1.2-0.1-2.4,0-3.5
		c0.2-1.2,0.5-2.7,0.8-3.7c0.4-1,1-1.9,1.2-2.1c0.1-0.2-0.3,0.9-0.3,1c0,0.1,0.6-1,0.6-0.6c-0.1,0.4-0.8,1.9-1.1,3
		c-0.3,1.1-0.5,2.3-0.6,3.7c-0.1,1.3,0,3,0.2,4.3c0.2,1.2,0.5,2.2,0.9,3.2C116.6,70.2,118,71.6,118,71.7L118,71.7z"/>
	<path class="st9" d="M121.8,52.6c0.1,0.3,1.1,1.3,1.6,2.2c0.4,0.9,0.7,1.8,0.9,3.2c0.1,1.4,0.3,3.5,0.1,5.3
		c-0.3,1.8-1.4,4.6-1.6,5.5c-0.2,0.9,0.4-0.3,0.4,0c0,0.3-0.5,1.8-0.4,1.6c0.1-0.2,0.8-1.5,1.1-2.6c0.4-1.1,0.8-2.4,1-3.9
		c0.2-1.5,0.1-3.5,0-4.9c-0.2-1.5-0.4-2.7-0.8-3.7c-0.4-1-1.1-1.8-1.4-2.3C122.3,52.6,121.7,52.3,121.8,52.6L121.8,52.6z"/>
	<path class="st10" d="M116.6,59.1c0-0.2,0.1-0.9,0.3-1.4c0.2-0.5,0.5-1,0.9-1.5c0.3-0.5,0.7-0.9,1.1-1.1c0.4-0.2,0.8-0.2,1.2-0.2
		c0.4,0,0.8,0,1.2,0.2c0.4,0.2,0.9,0.5,1.3,1.1c0.3,0.5,0.7,1.1,0.8,2c0.1,0.9,0,3.2-0.1,3.5c0,0.3-0.1-0.8-0.2-1.5
		c-0.2-0.7-0.2-2-0.7-2.6c-0.5-0.7-1.5-1.3-2.2-1.3c-0.8-0.1-1.8,0.6-2.3,1.1c-0.5,0.5-0.6,1.3-0.8,1.6
		C116.8,59.3,116.6,59.3,116.6,59.1L116.6,59.1z"/>
	<path class="st10" d="M121.7,68.3c-0.3,0.3-0.6,0.7-1,0.9c-0.4,0.2-0.9,0.3-1.4,0.3c-0.5-0.1-1.1-0.2-1.6-0.6
		c-0.5-0.4-1-0.9-1.3-1.8c-0.3-0.9-0.6-2.3-0.7-3.4c-0.1-1.1,0.3-3,0.4-3.1c0-0.1-0.3,1.3-0.2,2.3c0.1,1,0.4,2.6,0.8,3.6
		c0.4,1,1.1,1.9,1.7,2.4c0.6,0.3,1.5,0.1,2-0.1c0.4-0.1,0.5-0.3,0.8-0.6c0.3-0.3,0.8-1.3,1-1.4c0.2-0.2,0.1,0.3,0,0.6
		C122.1,67.6,122,68,121.7,68.3L121.7,68.3z"/>
	<path class="st3" d="M122.8,65.7c-0.3,0.7-0.6,1.4-0.9,1.9c-0.3,0.5-0.7,1-1.1,1.3c-0.4,0.3-0.8,0.4-1.3,0.4
		c-0.5,0-1.1-0.2-1.6-0.6c-0.5-0.4-1-1.1-1.3-1.8c-0.3-0.8-0.5-1.7-0.7-2.6c-0.1-0.9-0.1-1.9,0-2.8c0.1-1,0.3-1.9,0.7-2.8
		c0.4-0.9,1-1.8,1.4-2.4c0.4-0.6,0.8-0.7,1.2-0.9c0.3-0.2,0.6-0.3,1-0.3c0.4,0.1,0.8,0.2,1.2,0.6c0.4,0.4,0.9,0.9,1.2,1.7
		c0.3,0.8,0.4,1.9,0.5,2.9c0.1,1,0.1,2,0,2.9C123.2,64.1,123.1,64.9,122.8,65.7L122.8,65.7z"/>
	<path class="st8" d="M118.8,68.3c0.4,0.1,0.8,0,1.2-0.2c0.4-0.3,0.8-0.6,1.2-1.2c0.3-0.6,0.6-1.4,0.8-2.3c0.2-1,0.3-2.3,0.3-3.4
		c0-1.1-0.3-2.5-0.4-3.2c-0.2-0.7-0.5-0.9-0.8-1.2c-0.4-0.3-1-0.5-1.4-0.4c-0.4,0-0.7,0.3-0.9,0.7c0.4,0.3,0.7,0.6,1,1.1
		c0.3,0.4,0.4,1,0.6,1.6c0.1,0.6,0.1,1.3,0.1,2.2c-0.1,0.9-0.2,2.3-0.4,3c-0.2,0.7-0.4,0.9-0.8,1.3c-0.4,0.5-1.4,1.2-1.5,1.3
		c-0.1,0,0.6-0.7,0.9-1.1c0.3-0.4,0.5-0.4,0.7-0.9c0.2-0.5,0.5-1.1,0.6-1.8c0.1-0.7,0.1-1.5,0.1-2.1c0-0.7,0.1-1.3,0-1.9
		c-0.1-0.6-0.3-1.1-0.6-1.6c-0.3-0.5-0.7-0.8-1.1-1.1c0.3-0.5,0.6-0.8,1-1c0.3-0.2,0.8-0.3,1.2-0.1c0.4,0.1,0.9,0.5,1.3,1
		c0.4,0.5,0.7,1.2,0.8,2c0.1,0.8,0.2,1.9,0.1,2.9c0,0.9-0.2,2-0.3,2.8c-0.2,0.8-0.4,1.5-0.7,2.1c-0.3,0.6-0.9,1.1-1.2,1.5
		c-0.3,0.3-0.6,0.4-0.9,0.5C119.4,68.6,119.1,68.5,118.8,68.3L118.8,68.3z"/>
	<path class="st6" d="M118.1,60l0.2-2.3c0.2,0,0.3,0,0.5,0.2c0.2,0.2,0.3,0.4,0.5,0.9l-1,1.3C118.1,60,118.1,60,118.1,60L118.1,60z"
		/>
	<path class="st6" d="M118.4,60.2l0.9-1.1c0.1,0.1,0.2,0.3,0.2,0.4c0,0.2,0.1,0.3,0,0.6l-0.9,0.9c0-0.2,0-0.4-0.1-0.5
		C118.6,60.4,118.5,60.3,118.4,60.2L118.4,60.2z"/>
	<path class="st6" d="M118.8,61.4l0.9-0.9c0.1,0.4,0.1,0.7,0.1,1.1c0,0.4,0,0.7-0.1,1.1l-0.9-0.7C118.7,61.9,118.8,61.6,118.8,61.4
		L118.8,61.4z"/>
	<path class="st6" d="M118.7,62.3c0,0.2-0.1,0.3-0.1,0.5c0,0.1-0.1,0.3-0.1,0.4l1,1c0-0.2,0.1-0.4,0.1-0.6c0-0.2,0.1-0.4,0.1-0.6
		C119.3,62.8,119,62.6,118.7,62.3L118.7,62.3z"/>
	<path class="st6" d="M118.3,63.6l0.9,0.9c-0.1,0.3-0.2,0.5-0.3,0.8c-0.2,0.2-0.3,0.4-0.5,0.6l-0.4-2
		C118.1,63.8,118.2,63.7,118.3,63.6L118.3,63.6z"/>
	<path class="st6" d="M117.7,64.1c0,0.4,0.1,0.7,0.1,1.1c0,0.3,0.1,0.6,0.1,0.9c-0.1,0.1-0.3,0.2-0.4,0.3c-0.1,0.1-0.3,0.1-0.5,0.1
		l-0.4-1.4l0.2-1c0.3,0.1,0.4,0.2,0.6,0.1C117.6,64.3,117.6,64.2,117.7,64.1L117.7,64.1z"/>
	<path class="st6" d="M117.8,60l0-2.1c-0.1,0-0.3,0-0.4,0.1c-0.1,0.1-0.2,0.2-0.3,0.3l-0.4,0.9c0.1,0.2,0.1,0.4,0.2,0.6
		c0.1,0.2,0.1,0.4,0.2,0.6c0.1-0.1,0.2-0.2,0.3-0.2C117.6,60,117.7,60,117.8,60L117.8,60z"/>
	<path class="st6" d="M117.1,60.4l-0.4-0.7l-0.2,1.1L117.1,60.4L117.1,60.4z"/>
	<path class="st6" d="M117.2,61.3c-0.2,0.2-0.4,0.5-0.4,0.9c0,0.3,0.1,0.9,0.3,1.1c0.2,0.1,0.6-0.1,0.8-0.3c0.2-0.3,0.4-1.1,0.4-1.4
		c-0.1-0.4-0.5-0.6-0.7-0.6C117.5,60.8,117.4,61,117.2,61.3z"/>
	<path class="st3" d="M117.4,61.7c-0.1,0.1-0.2,0.5-0.2,0.7c0,0.2,0.2,0.4,0.3,0.3c0.1-0.1,0.3-0.7,0.3-0.9
		C117.8,61.6,117.5,61.6,117.4,61.7L117.4,61.7z"/>
	<path class="st10" d="M106,69.3c0.1,0.4,0.5,1,1,1.8c0.5,0.8,1.2,1.8,2.1,3l7.5,0.1c-1-0.7-1.7-1.5-2.3-2.5c-0.6-1-0.9-2-1.1-3.6
		c-0.3-1.6-0.3-5.3-0.5-5.8c-0.2-0.5-0.5,2.5-0.8,2.8c-0.4,0.2-1-2.1-1.3-1.5c-0.3,0.5-0.3,4.1-0.6,4.7c-0.3,0.6-1.1-1.4-1.4-1.3
		c-0.4,0.1-0.3,1.2-0.7,1.6C107.4,69,106.8,69.2,106,69.3L106,69.3z"/>
	<path class="st10" d="M114.5,54.3c0.4-0.7,0.9-1.4,1.6-2c0.7-0.7,1.7-1.7,2.5-2c0.8-0.3,1.7-0.3,2.4,0c0.7,0.2,2.2,1.4,2.1,1.5
		c-0.1,0-1.8-1-2.7-1.1c-0.9,0-1.8,0.3-2.8,1.1c-1.1,0.8-2.5,2.5-3.3,3.7c-0.7,1.2-0.9,3.1-1,3.4c-0.1,0.2-0.1-1.3,0.1-2
		C113.7,56,114.1,55.1,114.5,54.3L114.5,54.3z"/>
	<path class="st4" d="M49,58.7c1-0.6,2.5-1.4,4.5-2.6c2-1.2,4.5-2.5,7.6-4.2c0-0.8,0.3-1.5,0.9-1.9c0.6-0.4,1.4-0.6,2.5-0.6l0.4-0.9
		c-0.6,0.1-1.2,0.1-1.6,0c-0.4-0.1-0.8-0.2-0.9-0.8c-0.1-0.6,0.4-2,0.6-2.7c0.2-0.8,0.3-1.4,0.6-1.9c0.3-0.5,0.1-0.7,1-0.9
		c0.9-0.2,2.5-0.4,4.1-0.1c1.6,0.2,3.5,0.6,5.6,1.4c2.2,0.8,5,1.9,7.1,3.2c2.1,1.3,4,3.1,5.7,4.4c1.7,1.3,3,2.3,4.2,3.4
		c1.2,1.1,1.7,2.2,3.1,3.1c1.3,0.9,2.5,1.8,5,2.4c2.5,0.6,5.7,1,9.8,1.2l-0.1,10.6l-29.6,5.1c-1.4-0.4-3.1-0.7-5.2-0.9
		c-2.1-0.3-4.6-0.5-7.5-0.7L66.4,59c-4.7-0.1-8.4-0.2-11.3-0.2C52.2,58.8,50.1,58.7,49,58.7L49,58.7z M101.3,70.9l0.2-3.2l0.7-1.9
		l-6.6,0.6l-0.1,3.8L101.3,70.9L101.3,70.9z"/>
	<path class="st6" d="M52.8,58.3c0.6-0.2,1.6-0.7,3-1.6c1.4-0.9,3.3-2.1,5.6-3.6c0.1-0.8,0.2-1.3,0.4-1.8c0.2-0.4,0.4-0.6,0.9-0.9
		c0.4-0.3,1.1-0.7,1.6-0.6c0.5,0,1,0.5,1.4,0.8c0.3,0.3,0.5,0.7,0.6,1.1l1.9,1.4l-0.1,3.2c-0.5,0.2-1,0.5-1.6,0.9
		c-0.6,0.4-1.3,0.9-2,1.4C60.6,58.5,56.7,58.4,52.8,58.3L52.8,58.3z"/>
	<path class="st6" d="M63.3,45.8c0.2-0.6,0.4-1.3,0.6-1.7c0.2-0.5,0.2-0.9,0.4-1c0.2-0.1,0.6,0,0.9,0.6c0.3,0.6,0.6,2.3,0.7,3.1
		c0,0.7-0.1,0.9-0.4,1.2c-0.3,0.3-1,0.4-1.4,0.4c-0.5-0.1-1.1-0.3-1.2-0.7C62.7,47.2,63.1,46.4,63.3,45.8L63.3,45.8z"/>
	<path class="st5" d="M66.3,49c0.9-0.2,1.7-0.2,2.3-0.2c0.6,0,1,0.1,1.2,0.3l4.4,2.7l-6.8-0.2c0-0.6-0.2-1.1-0.4-1.6
		C66.9,49.5,66.7,49.2,66.3,49L66.3,49z"/>
	<path class="st5" d="M69.7,53l10.5-0.6c-2.4,0-4.4,0.3-6.3,0.9c-1.9,0.5-3.5,1.3-4.9,2.4C69.3,54.8,69.5,53.9,69.7,53L69.7,53z"/>
	<path class="st5" d="M74.3,59.5c2.6-0.6,5-1.1,7.4-1.5c2.4-0.4,4.6-0.8,6.8-1.1c-0.4-0.5-0.8-0.9-1.2-1.4c-0.4-0.5-0.8-1-1.1-1.5
		l3.6-0.1c0.6,0.3,1.1,0.7,1.6,1.3c0.5,0.5,0.5,1.2,1.2,1.9c0.7,0.6,1.6,1.2,2.8,1.8c-0.9,0-2.1,0.1-3.4,0.3c-1.4,0.2-4.4,1-4.6,0.7
		c-0.2-0.3,0.9-1.1,3.4-2.5c-2.7,0.4-5.3,0.7-8,1.1C79.8,58.8,77.1,59.1,74.3,59.5L74.3,59.5z"/>
	<path class="st8" d="M95.7,70.4l0.4-3.7l5.9-0.2l2.1-5.6c-1.5-0.1-2.7-0.3-3.7-0.5c-1.1-0.2-1.7-0.5-2.4-0.7
		c-0.7-0.3-1.4-0.6-1.9-0.9c0,0.8-0.1,1.4-0.4,2c-0.3,0.6-0.7,1.1-1.3,1.5l-0.1,7.9C94.8,70.2,95.2,70.3,95.7,70.4L95.7,70.4z"/>
	<path class="st3" d="M96.1,63c2.4-0.3,4.1-0.6,5.3-0.9c1.2-0.2,1.8-0.4,1.8-0.5L103,61c-0.7,0-1.5,0-2.6,0c-1.1,0-2.4,0.1-3.9,0.2
		c-0.2,0.2-0.2,0.3-0.2,0.4c0,0.1,0.1,0.2,0.4,0.3l2.4-0.2l-2.9,0.6C96.2,62.5,96.2,62.8,96.1,63L96.1,63z"/>
	<path class="st3" d="M96.3,64.8c0.8,0.1,1.7,0.1,2.7,0.1c1,0,2,0,3.1,0.1l-0.1,0.8c-0.8,0.1-1.8,0.2-2.8,0.3c-1,0-2.2,0.1-3.4,0.1
		c-0.4-0.5-0.6-0.9-0.5-1.1C95.4,64.9,95.7,64.8,96.3,64.8L96.3,64.8z"/>
	<path class="st6" d="M69.1,63.7l10,0.3l15.5-1.5l-0.1,7.6l4.6,0.6l2.1,0.1l0.1-2.8l2.5-7.1c0.5,0,1.1,0.1,2,0.1
		c0.9,0.1,2,0.1,3.3,0.2l-4.7,6.8l0.1,4.4c-2.2,0.2-5.3,0.7-9.4,1.4c-4.1,0.7-9.1,1.5-15.2,2.6c-0.3-0.1-1.4-0.3-3.3-0.5
		c-1.9-0.2-4.5-0.5-7.9-0.9C68.8,71.3,69,67.5,69.1,63.7L69.1,63.7z"/>
	<path class="st10" d="M43,58.5v-0.9c0.7,0.1,1.2,0,1.5-0.2c0.3-0.2,0.3-0.8,0.2-1.1c-0.1-0.3-0.2-0.3-1-0.4
		c-0.9-0.1-3.3-0.3-4.1-0.1c-0.8,0.2-0.9,0.8-0.7,1.1c0.1,0.3,0.9,0.5,1.5,0.6c0.6,0.1,1.2,0.2,1.9,0.1l0.1,0.9H43L43,58.5z"/>
	<path class="st2" d="M59.9,58.6c-0.2-0.6,0-1,0.4-1.2c0.4-0.2,1.1-0.1,2.1-0.1c0.9,0,2.7-0.1,3.3,0.1c0.5,0.2,0.5,0.5-0.1,1.1
		C63.6,58.5,61.7,58.6,59.9,58.6L59.9,58.6z"/>
	<path class="st4" d="M91.1,65.5l0.2,2.9l3.4-0.3v-2.9L91.1,65.5L91.1,65.5z"/>
	<path class="st11" d="M78.1,66.9l-5-0.2l0.1,2.8l5.1,0.4L78.1,66.9L78.1,66.9z"/>
	<path class="st4" d="M73.6,70.4l4.9,0.4l16.2-1.8l0.1,0.8l-15.9,2l-5.2-0.2L73.6,70.4L73.6,70.4z"/>
	<path class="st6" d="M58.2,58.5h10c1.3,0.3,2.4,0.9,3.2,1.8c0.8,0.9,1.4,2.1,1.9,3.6c0.4,1.5,0.7,3.4,0.7,5.4c0.1,2,0,4.6-0.5,6.6
		c-0.5,1.9-1.5,3.7-2.4,5c-0.9,1.2-1.7,1.7-3,2.2c-1.4,0.4-3,0.5-4.8,0.5c-1.8,0-3.9-0.1-6.2-0.4c-1.6-1.6-2.7-3.2-3.5-4.9
		c-0.8-1.7-1.1-3.6-1.3-5.4c-0.2-1.8-0.1-3.5,0.1-4.9c0.2-1.4,0.5-2.4,0.9-3.5c0.4-1.1,0.7-2.2,1.5-3.2
		C55.6,60.3,56.7,59.4,58.2,58.5L58.2,58.5z"/>
	<path class="st9" d="M66.1,80.7c0,0.1-1.4-1-1.9-1.7c-0.5-0.7-0.9-1.4-1.1-2.4c-0.3-1-0.6-2.4-0.7-3.6c-0.1-1.2-0.1-2.4,0-3.5
		c0.2-1.2,0.5-2.7,0.8-3.7c0.4-1,1-1.9,1.2-2.1c0.1-0.2-0.3,0.9-0.3,1c0,0.1,0.6-1,0.6-0.6c-0.1,0.4-0.8,1.9-1.1,3
		c-0.3,1.1-0.5,2.3-0.6,3.7c-0.1,1.3,0,3,0.2,4.3c0.2,1.2,0.5,2.2,0.9,3.2C64.7,79.2,66,80.5,66.1,80.7L66.1,80.7z"/>
	<path class="st9" d="M69.8,61.5c0.1,0.3,1.1,1.3,1.6,2.2c0.4,0.9,0.7,1.8,0.9,3.2c0.1,1.4,0.3,3.5,0.1,5.3
		c-0.3,1.8-1.4,4.6-1.6,5.5c-0.2,0.9,0.4-0.3,0.4,0c0,0.3-0.5,1.8-0.4,1.6c0.1-0.2,0.8-1.5,1.1-2.6c0.4-1.1,0.8-2.4,1-3.9
		c0.2-1.5,0.1-3.5,0-4.9c-0.2-1.5-0.4-2.7-0.8-3.7c-0.4-1-1.1-1.8-1.4-2.3C70.4,61.5,69.7,61.2,69.8,61.5L69.8,61.5z"/>
	<path class="st10" d="M64.6,68c0-0.3,0.1-0.9,0.3-1.4c0.2-0.5,0.5-1.1,0.9-1.5c0.3-0.4,0.7-0.9,1.1-1.1c0.4-0.2,0.8-0.3,1.2-0.2
		c0.4,0,0.8,0,1.2,0.2c0.4,0.2,0.9,0.5,1.3,1.1c0.3,0.5,0.7,1.1,0.8,2c0.1,0.9,0,3.2-0.1,3.5c0,0.3-0.1-0.8-0.2-1.5
		c-0.2-0.7-0.2-2-0.7-2.6c-0.5-0.7-1.5-1.3-2.2-1.3c-0.8-0.1-1.8,0.6-2.3,1.1c-0.5,0.4-0.6,1.3-0.8,1.6C64.8,68.2,64.6,68.2,64.6,68
		L64.6,68z"/>
	<path class="st10" d="M69.7,77.2c-0.3,0.3-0.6,0.7-1,0.9c-0.4,0.2-0.9,0.3-1.4,0.3c-0.5-0.1-1.1-0.2-1.6-0.6
		c-0.5-0.4-1-0.9-1.3-1.8c-0.3-0.9-0.6-2.3-0.7-3.4c-0.1-1.1,0.3-3,0.4-3.1c0-0.1-0.3,1.3-0.2,2.3c0.1,0.9,0.4,2.6,0.8,3.6
		c0.4,1,1.1,2,1.7,2.4c0.6,0.3,1.5,0,2-0.1c0.4-0.1,0.5-0.3,0.8-0.6c0.3-0.3,0.8-1.3,1-1.4c0.2-0.2,0.1,0.3,0,0.6
		C70.2,76.5,70,76.9,69.7,77.2L69.7,77.2z"/>
	<path class="st3" d="M70.9,74.6c-0.3,0.7-0.6,1.4-0.9,1.9c-0.3,0.5-0.7,1-1.1,1.3c-0.4,0.3-0.8,0.4-1.3,0.4c-0.5,0-1.1-0.2-1.6-0.6
		c-0.5-0.4-1-1.1-1.3-1.8c-0.3-0.8-0.5-1.7-0.7-2.6c-0.1-0.9-0.1-1.9,0-2.8c0.1-1,0.3-1.9,0.7-2.8c0.4-0.9,1-1.8,1.4-2.4
		c0.4-0.6,0.8-0.7,1.2-0.9c0.3-0.2,0.6-0.3,1-0.3c0.4,0.1,0.8,0.2,1.2,0.6c0.4,0.4,0.9,0.9,1.2,1.6c0.3,0.8,0.4,1.9,0.5,2.9
		c0.1,1,0.1,2,0,2.9C71.3,73,71.1,73.9,70.9,74.6L70.9,74.6z"/>
	<path class="st8" d="M66.9,77.2c0.4,0.1,0.8,0,1.2-0.2c0.4-0.3,0.8-0.6,1.2-1.2c0.3-0.6,0.6-1.4,0.8-2.3c0.2-1,0.3-2.3,0.3-3.4
		c0-1.1-0.3-2.5-0.4-3.2c-0.2-0.7-0.5-1-0.8-1.2c-0.4-0.3-1-0.5-1.4-0.4c-0.4,0-0.7,0.3-0.9,0.7c0.4,0.3,0.7,0.6,1,1.1
		c0.3,0.4,0.4,1,0.6,1.6c0.1,0.6,0.1,1.3,0.1,2.2c-0.1,0.9-0.2,2.3-0.4,3c-0.2,0.7-0.4,0.9-0.8,1.3c-0.4,0.5-1.4,1.2-1.5,1.3
		c-0.1,0,0.6-0.7,0.9-1.1c0.3-0.4,0.5-0.4,0.7-0.9c0.2-0.5,0.5-1.1,0.6-1.8c0.1-0.7,0.1-1.4,0.1-2.1c0-0.7,0.1-1.3,0-1.9
		C68,68,67.8,67.4,67.5,67c-0.3-0.5-0.7-0.8-1.1-1.1c0.3-0.5,0.6-0.8,1-1c0.3-0.2,0.8-0.2,1.2-0.1c0.4,0.1,0.9,0.5,1.3,1
		c0.4,0.5,0.7,1.2,0.8,2c0.1,0.8,0.2,1.9,0.1,2.9c0,0.9-0.2,2-0.3,2.8c-0.2,0.8-0.4,1.5-0.7,2.1c-0.3,0.6-0.9,1.1-1.2,1.5
		c-0.3,0.3-0.6,0.4-0.9,0.5C67.4,77.5,67.1,77.4,66.9,77.2L66.9,77.2z"/>
	<path class="st6" d="M66.1,68.9l0.2-2.3c0.2,0,0.3,0.1,0.5,0.2c0.2,0.2,0.3,0.5,0.5,0.8l-1,1.3C66.2,69,66.1,68.9,66.1,68.9
		L66.1,68.9z"/>
	<path class="st6" d="M66.4,69.1l0.9-1.1c0.1,0.1,0.2,0.3,0.2,0.4c0,0.2,0.1,0.3,0,0.6L66.8,70c0-0.2,0-0.4-0.1-0.5
		C66.6,69.3,66.5,69.2,66.4,69.1L66.4,69.1z"/>
	<path class="st6" d="M66.8,70.3l0.9-0.9c0.1,0.4,0.1,0.7,0.1,1.1c0,0.4,0,0.7-0.1,1.1L66.8,71C66.8,70.8,66.8,70.6,66.8,70.3
		L66.8,70.3z"/>
	<path class="st6" d="M66.7,71.2c0,0.2-0.1,0.3-0.1,0.5c0,0.1-0.1,0.3-0.1,0.4l1,1c0-0.2,0.1-0.4,0.1-0.6c0-0.2,0.1-0.4,0.1-0.6
		C67.3,71.7,67,71.5,66.7,71.2L66.7,71.2z"/>
	<path class="st6" d="M66.3,72.5l0.9,0.9c-0.1,0.3-0.2,0.5-0.3,0.8c-0.2,0.2-0.3,0.4-0.5,0.6l-0.4-2C66.1,72.7,66.2,72.6,66.3,72.5
		L66.3,72.5z"/>
	<path class="st6" d="M65.7,73c0,0.4,0.1,0.7,0.1,1.1c0,0.3,0.1,0.6,0.1,0.9c-0.1,0.1-0.3,0.2-0.4,0.3c-0.1,0.1-0.3,0.1-0.5,0.1
		L64.6,74l0.2-1c0.3,0.1,0.4,0.2,0.6,0.1C65.6,73.2,65.7,73.1,65.7,73L65.7,73z"/>
	<path class="st6" d="M65.8,68.9l0-2.1c-0.1,0-0.3,0-0.4,0.1c-0.1,0.1-0.2,0.2-0.3,0.3l-0.4,0.9c0.1,0.2,0.1,0.4,0.2,0.6
		c0.1,0.2,0.1,0.4,0.2,0.6c0.1-0.1,0.2-0.2,0.3-0.2C65.7,69,65.8,68.9,65.8,68.9L65.8,68.9z"/>
	<path class="st6" d="M65.1,69.3l-0.4-0.7l-0.2,1.1L65.1,69.3L65.1,69.3z"/>
	<path class="st6" d="M65.3,70.2c-0.2,0.2-0.4,0.5-0.4,0.9c0,0.3,0.1,0.9,0.3,1.1c0.2,0.1,0.6-0.1,0.9-0.3c0.2-0.3,0.4-1.1,0.4-1.4
		c-0.1-0.4-0.5-0.6-0.7-0.6C65.5,69.8,65.4,70,65.3,70.2L65.3,70.2z"/>
	<path class="st3" d="M65.4,70.6c-0.1,0.1-0.2,0.5-0.2,0.7c0,0.1,0.2,0.4,0.3,0.3c0.1-0.1,0.3-0.7,0.3-0.9
		C65.8,70.5,65.6,70.5,65.4,70.6L65.4,70.6z"/>
	<path class="st10" d="M54,78.2c0.1,0.4,0.5,1,1,1.8c0.5,0.8,1.2,1.8,2.1,3l7.5,0.1c-1-0.7-1.7-1.5-2.3-2.5c-0.6-1-0.9-2-1.1-3.6
		c-0.3-1.6-0.3-5.3-0.5-5.8c-0.2-0.5-0.5,2.5-0.8,2.8c-0.4,0.2-1-2.1-1.3-1.5c-0.3,0.5-0.3,4.1-0.6,4.7c-0.3,0.5-1.1-1.4-1.4-1.3
		c-0.4,0.1-0.3,1.2-0.7,1.6C55.5,77.9,54.8,78.2,54,78.2L54,78.2z"/>
	<path class="st10" d="M62.6,63.2c0.4-0.8,0.9-1.4,1.6-2c0.7-0.7,1.7-1.7,2.5-2c0.9-0.3,1.6-0.3,2.4,0c0.8,0.2,2.2,1.4,2.1,1.5
		c-0.1,0-1.8-1.1-2.7-1c-0.9,0-1.8,0.3-2.8,1.1c-1.1,0.8-2.5,2.5-3.3,3.7c-0.7,1.2-0.9,3.1-1,3.4c-0.1,0.2-0.1-1.3,0.1-2
		C61.8,64.9,62.1,64,62.6,63.2L62.6,63.2z"/>
	<path class="st6" d="M36.2,72.7c2.7,0.1,5.6,0.3,8.7,0.4c3.1,0.1,6.3,0.2,9.8,0.2L54.2,75l-6.9,1.8c-2-0.1-4.5-0.2-7.7-0.4
		c-3.2-0.2-6.9-0.4-11.3-0.6c0.8-0.2,1.7-0.4,2.7-0.7c1-0.3,2.3-0.8,3.2-1.2C35,73.6,35.7,73.1,36.2,72.7L36.2,72.7z"/>
	<path class="st7" d="M28.3,75.8c2.5,0.1,4.8,0.3,7.2,0.4c2.4,0.1,4.9,0.2,6.9,0.3c2,0.1,4,0.1,4.7,0.2c0.7,0.1,0.2,0.3-0.5,0.4
		c-0.7,0-2.1-0.1-3.5-0.1c-1.5-0.1-3.2-0.1-5.3-0.2c-2.1-0.1-5.6-0.3-7.2-0.4c-1.6-0.1-2.3-0.1-2.2-0.1C28.4,76.1,28.4,76,28.3,75.8
		L28.3,75.8z"/>
	<path class="st4" d="M55.2,69.1c-0.2,0-0.3,0.1-0.4,0.3c-0.1,0.2-0.1,0.4-0.1,0.9c-0.1,0.6-0.1,1.8-0.3,2.4
		c-0.3,0.6-0.6,0.7-1.1,1.1c-0.6,0.3-1.5,0.5-2.2,0.8c-0.8,0.2-1.8,0.5-2.4,0.7c-0.6,0.2-1.1,0.3-1.4,0.6c-0.3,0.2-0.5,0.6-0.6,0.9
		l8.2-2.9C55,72.3,55.1,70.7,55.2,69.1L55.2,69.1z"/>
	<path class="st5" d="M55.1,77.4c-1,0.3-2,0.6-3.2,0.8c-1.2,0.3-2.8,0.7-3.7,0.8c-0.9,0-1.3-0.1-1.6-0.5c-0.3-0.4-0.4-1.3-0.1-1.8
		c0.2-0.5,0.5-0.5,1.6-1c1.2-0.5,4.2-1.2,5.3-1.8c1.1-0.6,1-0.8,1.2-1.5c0.2-0.8,0.2-2.5,0.3-3.1c0.1-0.6,0.4-0.9,0.5-0.4
		c0.1,0.5,0.2,2.1,0.1,3.3c0,1.2-0.1,2.4-0.2,3.7C55.3,76.4,55.2,76.9,55.1,77.4L55.1,77.4z"/>
</g>
<path class="st4" d="M86.1,66l0.2,2.9l3.4-0.3v-2.9L86.1,66L86.1,66z"/>
<path class="st4" d="M80.6,66.6l0.2,2.9l3.4-0.3v-2.9L80.6,66.6L80.6,66.6z"/>
</svg>
